<svg aria-hidden="true" style="position: absolute; width: 0; height: 0; overflow: hidden;" version="1.1" xmlns="http://www.w3.org/2000/svg" xmlns:xlink="http://www.w3.org/1999/xlink">
<defs>
<symbol id="icon-teeny" viewBox="0 0 32 32">
<path d="M1.504 12.4h29.001v-2.133h-29.001v2.133zM29.87 11.766v0.937h2.133v-0.937h-2.133zM26.427 29.467h-20.847v2.133h20.847v-2.133zM2.137 12.703v-0.937h-2.133v0.937h2.133zM6.182 29.838c-2.66-5.32-4.045-11.187-4.045-17.135h-2.133c0 6.281 1.461 12.474 4.271 18.091l1.907-0.956zM5.58 29.467c0.256 0 0.489 0.145 0.602 0.371l-1.907 0.956c0.121 0.242 0.308 0.446 0.538 0.588s0.496 0.218 0.767 0.218v-2.133zM25.826 29.838c0.056-0.112 0.142-0.206 0.248-0.271s0.229-0.1 0.354-0.1v2.133c0.555 0 1.058-0.312 1.306-0.806l-1.907-0.956zM29.87 12.703c0 5.948-1.387 11.814-4.045 17.135l1.907 0.956c2.809-5.617 4.271-11.811 4.271-18.091h-2.133zM30.504 12.4c-0.168 0-0.329-0.067-0.448-0.186s-0.186-0.28-0.186-0.448h2.133c0-0.398-0.158-0.779-0.439-1.060s-0.663-0.439-1.060-0.439v2.133zM1.504 10.267c-0.398 0-0.779 0.158-1.060 0.439s-0.439 0.663-0.439 1.060h2.133c0 0.168-0.067 0.329-0.186 0.448s-0.28 0.186-0.448 0.186v-2.133zM8.386 11.882l6.4-10.667-1.833-1.097-6.4 10.667 1.833 1.096zM17.222 1.215l6.4 10.667 1.83-1.096-6.4-10.667-1.83 1.097zM10.67 20.933h10.667v-2.133h-10.667v2.133z"></path>
</symbol>
<symbol id="icon-Paw" viewBox="0 0 32 32">
<path d="M15.558 18.557c0.181 3.691 2.861 4.162 5.358 7.263 3.695 4.434 6.668 3.117 7.173-0.081 0.477-3.073-2.121-5.266-2.292-8.55s2.271-6.254 1.525-9.188c-0.746-2.934-3.823-3.4-7.096 1.989-2.21 3.718-4.757 4.905-4.668 8.566z"></path>
<path d="M9.971 9.458c2.092 1.699 4.582 1.093 5.468-0.778s-0.185-5.15-2.303-6.731c-2.092-1.699-4.582-1.093-5.468 0.778-0.86 1.752 0.211 5.032 2.303 6.731z"></path>
<path d="M4.798 18.931c2.467 0.132 4.711-1.56 4.987-4.028 0.248-2.343-1.527-4.403-4.077-4.562-2.467-0.132-4.712 1.56-4.987 4.028-0.248 2.343 1.61 4.43 4.077 4.562z"></path>
<path d="M5.972 30.71c2.242 0.049 4.481-1.872 4.788-4.366 0.279-2.367-1.157-5.012-3.474-5.085-2.242-0.049-4.481 1.872-4.788 4.366-0.279 2.367 1.232 5.037 3.474 5.085z"></path>
</symbol>
</defs>
</svg>
